{
    "asset" : {
        "generator" : "Khronos glTF Blender I/O v1.6.16",
        "version" : "2.0"
    },
    "scene" : 0,
    "scenes" : [
        {
            "name" : "Scene",
            "nodes" : [
                0
            ]
        }
    ],
    "nodes" : [
        {
            "mesh" : 0,
            "name" : "10076_pisa_tower_v1_max2009_it0",
            "scale" : [
                0.004185291938483715,
                0.004185291938483715,
                0.004185291938483715
            ],
            "translation" : [
                0,
                1.4984103441238403,
                0
            ]
        }
    ],
    "materials" : [
        {
            "doubleSided" : true,
            "emissiveFactor" : [
                0.5881999731063843,
                0.5881999731063843,
                0.5881999731063843
            ],
            "name" : "22___Default",
            "pbrMetallicRoughness" : {
                "baseColorTexture" : {
                    "index" : 0
                },
                "metallicFactor" : 0,
                "roughnessFactor" : 0.8945907354354858
            }
        }
    ],
    "meshes" : [
        {
            "name" : "10076_pisa_tower_v1_max2009_it0",
            "primitives" : [
                {
                    "attributes" : {
                        "POSITION" : 0,
                        "NORMAL" : 1,
                        "TEXCOORD_0" : 2
                    },
                    "indices" : 3,
                    "material" : 0
                }
            ]
        }
    ],
    "textures" : [
        {
            "sampler" : 0,
            "source" : 0
        }
    ],
    "images" : [
        {
            "bufferView" : 4,
            "mimeType" : "image/jpeg",
            "name" : "10076_pisa_tower_v1_diffuse"
        }
    ],
    "accessors" : [
        {
            "bufferView" : 0,
            "componentType" : 5126,
            "count" : 37716,
            "max" : [
                954.7965698242188,
                5200.5537109375,
                959.2908935546875
            ],
            "min" : [
                -954.79541015625,
                -377.718505859375,
                -959.2913818359375
            ],
            "type" : "VEC3"
        },
        {
            "bufferView" : 1,
            "componentType" : 5126,
            "count" : 37716,
            "type" : "VEC3"
        },
        {
            "bufferView" : 2,
            "componentType" : 5126,
            "count" : 37716,
            "type" : "VEC2"
        },
        {
            "bufferView" : 3,
            "componentType" : 5123,
            "count" : 90918,
            "type" : "SCALAR"
        }
    ],
    "bufferViews" : [
        {
            "buffer" : 0,
            "byteLength" : 452592,
            "byteOffset" : 0
        },
        {
            "buffer" : 0,
            "byteLength" : 452592,
            "byteOffset" : 452592
        },
        {
            "buffer" : 0,
            "byteLength" : 301728,
            "byteOffset" : 905184
        },
        {
            "buffer" : 0,
            "byteLength" : 181836,
            "byteOffset" : 1206912
        },
        {
            "buffer" : 0,
            "byteLength" : 248795,
            "byteOffset" : 1388748
        }
    ],
    "samplers" : [
        {
            "magFilter" : 9729,
            "minFilter" : 9987
        }
    ],
    "buffers" : [
        {
            "byteLength" : 1637544,
            "uri" : "data:application/octet-stream;base64,"
        }
    ]
}
