{
    "asset" : {
        "generator" : "Khronos glTF Blender I/O v1.6.16",
        "version" : "2.0"
    },
    "scene" : 0,
    "scenes" : [
        {
            "name" : "Scene",
            "nodes" : [
                0
            ]
        }
    ],
    "nodes" : [
        {
            "mesh" : 0,
            "name" : "10067_Eiffel_Tower_v1_max2010_it1.001",
            "rotation" : [
                1,
                0,
                0,
                -1.6292068494294654e-07
            ],
            "scale" : [
                -0.0010604008566588163,
                -0.0010604008566588163,
                -0.0010604008566588163
            ]
        }
    ],
    "materials" : [
        {
            "doubleSided" : true,
            "name" : "10067_Eiffel_Tower_v1.001",
            "pbrMetallicRoughness" : {
                "baseColorTexture" : {
                    "index" : 0
                },
                "metallicFactor" : 0,
                "roughnessFactor" : 0.8945907354354858
            }
        }
    ],
    "meshes" : [
        {
            "name" : "10067_Eiffel_Tower_v1_max2010_it1.001",
            "primitives" : [
                {
                    "attributes" : {
                        "POSITION" : 0,
                        "NORMAL" : 1,
                        "TEXCOORD_0" : 2
                    },
                    "indices" : 3,
                    "material" : 0
                }
            ]
        }
    ],
    "textures" : [
        {
            "sampler" : 0,
            "source" : 0
        }
    ],
    "images" : [
        {
            "bufferView" : 4,
            "mimeType" : "image/jpeg",
            "name" : "10067_Eiffel_Tower_v1_diffuse"
        }
    ],
    "accessors" : [
        {
            "bufferView" : 0,
            "componentType" : 5126,
            "count" : 26060,
            "max" : [
                6007.32177734375,
                32498.3359375,
                6007.32275390625
            ],
            "min" : [
                -6007.32177734375,
                -0.14839999377727509,
                -6007.32275390625
            ],
            "type" : "VEC3"
        },
        {
            "bufferView" : 1,
            "componentType" : 5126,
            "count" : 26060,
            "type" : "VEC3"
        },
        {
            "bufferView" : 2,
            "componentType" : 5126,
            "count" : 26060,
            "type" : "VEC2"
        },
        {
            "bufferView" : 3,
            "componentType" : 5123,
            "count" : 102360,
            "type" : "SCALAR"
        }
    ],
    "bufferViews" : [
        {
            "buffer" : 0,
            "byteLength" : 312720,
            "byteOffset" : 0
        },
        {
            "buffer" : 0,
            "byteLength" : 312720,
            "byteOffset" : 312720
        },
        {
            "buffer" : 0,
            "byteLength" : 208480,
            "byteOffset" : 625440
        },
        {
            "buffer" : 0,
            "byteLength" : 204720,
            "byteOffset" : 833920
        },
        {
            "buffer" : 0,
            "byteLength" : 982059,
            "byteOffset" : 1038640
        }
    ],
    "samplers" : [
        {
            "magFilter" : 9729,
            "minFilter" : 9987
        }
    ],
    "buffers" : [
        {
            "byteLength" : 2020700,
            "uri" : "data:application/octet-stream;base64,"
        }
    ]
}
